<?xml version="1.0" encoding="us-ascii" standalone="no"?><svg xmlns="http://www.w3.org/2000/svg" xmlns:xlink="http://www.w3.org/1999/xlink" contentStyleType="text/css" height="913px" preserveAspectRatio="none" style="width:1054px;height:913px;background:#FFFFFF;" version="1.1" viewBox="0 0 1054 913" width="1054px" zoomAndPan="magnify"><defs/><g><rect fill="#FFFFFF" height="187.2422" style="stroke:#181818;stroke-width:1.0;" width="10" x="183.5" y="67.7988"/><rect fill="#FFFFFF" height="100.6211" style="stroke:#181818;stroke-width:1.0;" width="10" x="272.5" y="284.3516"/><rect fill="#FFFFFF" height="14" style="stroke:#181818;stroke-width:1.0;" width="10" x="272.5" y="530.2148"/><rect fill="#FFFFFF" height="455.1055" style="stroke:#181818;stroke-width:1.0;" width="10" x="500.5" y="414.2832"/><rect fill="#FFFFFF" height="14" style="stroke:#181818;stroke-width:1.0;" width="10" x="647.5" y="486.9043"/><rect fill="#FFFFFF" height="14" style="stroke:#181818;stroke-width:1.0;" width="10" x="647.5" y="832.3887"/><rect fill="#FFFFFF" height="229.5527" style="stroke:#181818;stroke-width:1.0;" width="10" x="726" y="573.5254"/><rect fill="#FFFFFF" height="14" style="stroke:#181818;stroke-width:1.0;" width="10" x="913" y="646.1465"/><rect fill="#FFFFFF" height="14" style="stroke:#181818;stroke-width:1.0;" width="10" x="1001" y="689.457"/><line style="stroke:#181818;stroke-width:0.5;stroke-dasharray:5.0,5.0;" x1="28" x2="28" y1="36.4883" y2="878.3887"/><line style="stroke:#181818;stroke-width:0.5;stroke-dasharray:5.0,5.0;" x1="188.5" x2="188.5" y1="36.4883" y2="878.3887"/><line style="stroke:#181818;stroke-width:0.5;stroke-dasharray:5.0,5.0;" x1="277.5" x2="277.5" y1="36.4883" y2="878.3887"/><line style="stroke:#181818;stroke-width:0.5;stroke-dasharray:5.0,5.0;" x1="505.5" x2="505.5" y1="36.4883" y2="878.3887"/><line style="stroke:#181818;stroke-width:0.5;stroke-dasharray:5.0,5.0;" x1="652" x2="652" y1="36.4883" y2="878.3887"/><line style="stroke:#181818;stroke-width:0.5;stroke-dasharray:5.0,5.0;" x1="731" x2="731" y1="36.4883" y2="878.3887"/><line style="stroke:#181818;stroke-width:0.5;stroke-dasharray:5.0,5.0;" x1="918" x2="918" y1="36.4883" y2="878.3887"/><line style="stroke:#181818;stroke-width:0.5;stroke-dasharray:5.0,5.0;" x1="1006" x2="1006" y1="36.4883" y2="878.3887"/><rect fill="#E2E2F0" height="30.4883" rx="2.5" ry="2.5" style="stroke:#181818;stroke-width:0.5;" width="47" x="5" y="5"/><text fill="#000000" font-family="sans-serif" font-size="14" lengthAdjust="spacing" textLength="33" x="12" y="25.5352">Main</text><rect fill="#E2E2F0" height="30.4883" rx="2.5" ry="2.5" style="stroke:#181818;stroke-width:0.5;" width="47" x="5" y="877.3887"/><text fill="#000000" font-family="sans-serif" font-size="14" lengthAdjust="spacing" textLength="33" x="12" y="897.9238">Main</text><rect fill="#E2E2F0" height="30.4883" rx="2.5" ry="2.5" style="stroke:#181818;stroke-width:0.5;" width="60" x="158.5" y="5"/><text fill="#000000" font-family="sans-serif" font-size="14" lengthAdjust="spacing" textLength="46" x="165.5" y="25.5352">Config</text><rect fill="#E2E2F0" height="30.4883" rx="2.5" ry="2.5" style="stroke:#181818;stroke-width:0.5;" width="60" x="158.5" y="877.3887"/><text fill="#000000" font-family="sans-serif" font-size="14" lengthAdjust="spacing" textLength="46" x="165.5" y="897.9238">Config</text><rect fill="#E2E2F0" height="30.4883" rx="2.5" ry="2.5" style="stroke:#181818;stroke-width:0.5;" width="98" x="228.5" y="5"/><text fill="#000000" font-family="sans-serif" font-size="14" lengthAdjust="spacing" textLength="84" x="235.5" y="25.5352">MazeExtract</text><rect fill="#E2E2F0" height="30.4883" rx="2.5" ry="2.5" style="stroke:#181818;stroke-width:0.5;" width="98" x="228.5" y="877.3887"/><text fill="#000000" font-family="sans-serif" font-size="14" lengthAdjust="spacing" textLength="84" x="235.5" y="897.9238">MazeExtract</text><rect fill="#E2E2F0" height="30.4883" rx="2.5" ry="2.5" style="stroke:#181818;stroke-width:0.5;" width="100" x="455.5" y="5"/><text fill="#000000" font-family="sans-serif" font-size="14" lengthAdjust="spacing" textLength="86" x="462.5" y="25.5352">MazeRunner</text><rect fill="#E2E2F0" height="30.4883" rx="2.5" ry="2.5" style="stroke:#181818;stroke-width:0.5;" width="100" x="455.5" y="877.3887"/><text fill="#000000" font-family="sans-serif" font-size="14" lengthAdjust="spacing" textLength="86" x="462.5" y="897.9238">MazeRunner</text><rect fill="#E2E2F0" height="30.4883" rx="2.5" ry="2.5" style="stroke:#181818;stroke-width:0.5;" width="81" x="612" y="5"/><text fill="#000000" font-family="sans-serif" font-size="14" lengthAdjust="spacing" textLength="67" x="619" y="25.5352">Processor</text><rect fill="#E2E2F0" height="30.4883" rx="2.5" ry="2.5" style="stroke:#181818;stroke-width:0.5;" width="81" x="612" y="877.3887"/><text fill="#000000" font-family="sans-serif" font-size="14" lengthAdjust="spacing" textLength="67" x="619" y="897.9238">Processor</text><rect fill="#E2E2F0" height="30.4883" rx="2.5" ry="2.5" style="stroke:#181818;stroke-width:0.5;" width="56" x="703" y="5"/><text fill="#000000" font-family="sans-serif" font-size="14" lengthAdjust="spacing" textLength="42" x="710" y="25.5352">Solver</text><rect fill="#E2E2F0" height="30.4883" rx="2.5" ry="2.5" style="stroke:#181818;stroke-width:0.5;" width="56" x="703" y="877.3887"/><text fill="#000000" font-family="sans-serif" font-size="14" lengthAdjust="spacing" textLength="42" x="710" y="897.9238">Solver</text><rect fill="#E2E2F0" height="30.4883" rx="2.5" ry="2.5" style="stroke:#181818;stroke-width:0.5;" width="72" x="882" y="5"/><text fill="#000000" font-family="sans-serif" font-size="14" lengthAdjust="spacing" textLength="58" x="889" y="25.5352">Location</text><rect fill="#E2E2F0" height="30.4883" rx="2.5" ry="2.5" style="stroke:#181818;stroke-width:0.5;" width="72" x="882" y="877.3887"/><text fill="#000000" font-family="sans-serif" font-size="14" lengthAdjust="spacing" textLength="58" x="889" y="897.9238">Location</text><rect fill="#E2E2F0" height="30.4883" rx="2.5" ry="2.5" style="stroke:#181818;stroke-width:0.5;" width="84" x="964" y="5"/><text fill="#000000" font-family="sans-serif" font-size="14" lengthAdjust="spacing" textLength="70" x="971" y="25.5352">MazeState</text><rect fill="#E2E2F0" height="30.4883" rx="2.5" ry="2.5" style="stroke:#181818;stroke-width:0.5;" width="84" x="964" y="877.3887"/><text fill="#000000" font-family="sans-serif" font-size="14" lengthAdjust="spacing" textLength="70" x="971" y="897.9238">MazeState</text><rect fill="#FFFFFF" height="187.2422" style="stroke:#181818;stroke-width:1.0;" width="10" x="183.5" y="67.7988"/><rect fill="#FFFFFF" height="100.6211" style="stroke:#181818;stroke-width:1.0;" width="10" x="272.5" y="284.3516"/><rect fill="#FFFFFF" height="14" style="stroke:#181818;stroke-width:1.0;" width="10" x="272.5" y="530.2148"/><rect fill="#FFFFFF" height="455.1055" style="stroke:#181818;stroke-width:1.0;" width="10" x="500.5" y="414.2832"/><rect fill="#FFFFFF" height="14" style="stroke:#181818;stroke-width:1.0;" width="10" x="647.5" y="486.9043"/><rect fill="#FFFFFF" height="14" style="stroke:#181818;stroke-width:1.0;" width="10" x="647.5" y="832.3887"/><rect fill="#FFFFFF" height="229.5527" style="stroke:#181818;stroke-width:1.0;" width="10" x="726" y="573.5254"/><rect fill="#FFFFFF" height="14" style="stroke:#181818;stroke-width:1.0;" width="10" x="913" y="646.1465"/><rect fill="#FFFFFF" height="14" style="stroke:#181818;stroke-width:1.0;" width="10" x="1001" y="689.457"/><polygon fill="#181818" points="171.5,63.7988,181.5,67.7988,171.5,71.7988,175.5,67.7988" style="stroke:#181818;stroke-width:1.0;"/><line style="stroke:#181818;stroke-width:1.0;" x1="28.5" x2="177.5" y1="67.7988" y2="67.7988"/><text fill="#000000" font-family="sans-serif" font-size="13" lengthAdjust="spacing" textLength="59" x="35.5" y="63.0566">this(args)</text><polygon fill="#181818" points="39.5,77.7988,29.5,81.7988,39.5,85.7988,35.5,81.7988" style="stroke:#181818;stroke-width:1.0;"/><line style="stroke:#181818;stroke-width:1.0;" x1="33.5" x2="182.5" y1="81.7988" y2="81.7988"/><polygon fill="#181818" points="171.5,107.1094,181.5,111.1094,171.5,115.1094,175.5,111.1094" style="stroke:#181818;stroke-width:1.0;"/><line style="stroke:#181818;stroke-width:1.0;" x1="28.5" x2="177.5" y1="111.1094" y2="111.1094"/><text fill="#000000" font-family="sans-serif" font-size="13" lengthAdjust="spacing" textLength="95" x="35.5" y="106.3672">configure(args)</text><polygon fill="#181818" points="39.5,121.1094,29.5,125.1094,39.5,129.1094,35.5,125.1094" style="stroke:#181818;stroke-width:1.0;"/><line style="stroke:#181818;stroke-width:1.0;" x1="33.5" x2="182.5" y1="125.1094" y2="125.1094"/><polygon fill="#181818" points="171.5,150.4199,181.5,154.4199,171.5,158.4199,175.5,154.4199" style="stroke:#181818;stroke-width:1.0;"/><line style="stroke:#181818;stroke-width:1.0;" x1="28.5" x2="177.5" y1="154.4199" y2="154.4199"/><text fill="#000000" font-family="sans-serif" font-size="13" lengthAdjust="spacing" textLength="108" x="35.5" y="149.6777">assessValidPath()</text><polygon fill="#181818" points="39.5,164.4199,29.5,168.4199,39.5,172.4199,35.5,168.4199" style="stroke:#181818;stroke-width:1.0;"/><line style="stroke:#181818;stroke-width:1.0;" x1="33.5" x2="182.5" y1="168.4199" y2="168.4199"/><polygon fill="#181818" points="171.5,193.7305,181.5,197.7305,171.5,201.7305,175.5,197.7305" style="stroke:#181818;stroke-width:1.0;"/><line style="stroke:#181818;stroke-width:1.0;" x1="28.5" x2="177.5" y1="197.7305" y2="197.7305"/><text fill="#000000" font-family="sans-serif" font-size="13" lengthAdjust="spacing" textLength="131" x="35.5" y="192.9883">configureAlgorithm()</text><polygon fill="#181818" points="39.5,207.7305,29.5,211.7305,39.5,215.7305,35.5,211.7305" style="stroke:#181818;stroke-width:1.0;"/><line style="stroke:#181818;stroke-width:1.0;" x1="33.5" x2="182.5" y1="211.7305" y2="211.7305"/><polygon fill="#181818" points="171.5,237.041,181.5,241.041,171.5,245.041,175.5,241.041" style="stroke:#181818;stroke-width:1.0;"/><line style="stroke:#181818;stroke-width:1.0;" x1="28.5" x2="177.5" y1="241.041" y2="241.041"/><text fill="#000000" font-family="sans-serif" font-size="13" lengthAdjust="spacing" textLength="79" x="35.5" y="236.2988">getBaseline()</text><polygon fill="#181818" points="39.5,251.041,29.5,255.041,39.5,259.041,35.5,255.041" style="stroke:#181818;stroke-width:1.0;"/><line style="stroke:#181818;stroke-width:1.0;" x1="33.5" x2="187.5" y1="255.041" y2="255.041"/><polygon fill="#181818" points="260.5,280.3516,270.5,284.3516,260.5,288.3516,264.5,284.3516" style="stroke:#181818;stroke-width:1.0;"/><line style="stroke:#181818;stroke-width:1.0;" x1="28.5" x2="266.5" y1="284.3516" y2="284.3516"/><text fill="#000000" font-family="sans-serif" font-size="13" lengthAdjust="spacing" textLength="80" x="35.5" y="279.6094">this(filepath)</text><polygon fill="#181818" points="39.5,294.3516,29.5,298.3516,39.5,302.3516,35.5,298.3516" style="stroke:#181818;stroke-width:1.0;"/><line style="stroke:#181818;stroke-width:1.0;" x1="33.5" x2="271.5" y1="298.3516" y2="298.3516"/><polygon fill="#181818" points="260.5,323.6621,270.5,327.6621,260.5,331.6621,264.5,327.6621" style="stroke:#181818;stroke-width:1.0;"/><line style="stroke:#181818;stroke-width:1.0;" x1="28.5" x2="266.5" y1="327.6621" y2="327.6621"/><text fill="#000000" font-family="sans-serif" font-size="13" lengthAdjust="spacing" textLength="153" x="35.5" y="322.9199">getStartingCoordinates()</text><polygon fill="#181818" points="39.5,337.6621,29.5,341.6621,39.5,345.6621,35.5,341.6621" style="stroke:#181818;stroke-width:1.0;"/><line style="stroke:#181818;stroke-width:1.0;" x1="33.5" x2="271.5" y1="341.6621" y2="341.6621"/><polygon fill="#181818" points="260.5,366.9727,270.5,370.9727,260.5,374.9727,264.5,370.9727" style="stroke:#181818;stroke-width:1.0;"/><line style="stroke:#181818;stroke-width:1.0;" x1="28.5" x2="266.5" y1="370.9727" y2="370.9727"/><text fill="#000000" font-family="sans-serif" font-size="13" lengthAdjust="spacing" textLength="147" x="35.5" y="366.2305">getEndingCoordinates()</text><polygon fill="#181818" points="39.5,380.9727,29.5,384.9727,39.5,388.9727,35.5,384.9727" style="stroke:#181818;stroke-width:1.0;"/><line style="stroke:#181818;stroke-width:1.0;" x1="33.5" x2="276.5" y1="384.9727" y2="384.9727"/><polygon fill="#181818" points="488.5,410.2832,498.5,414.2832,488.5,418.2832,492.5,414.2832" style="stroke:#181818;stroke-width:1.0;"/><line style="stroke:#181818;stroke-width:1.0;" x1="28.5" x2="494.5" y1="414.2832" y2="414.2832"/><text fill="#000000" font-family="sans-serif" font-size="13" lengthAdjust="spacing" textLength="453" x="35.5" y="409.541">this(path_sequence, maze, start, end, algo, baseline, baselineAlgorithm)</text><polygon fill="#181818" points="39.5,424.2832,29.5,428.2832,39.5,432.2832,35.5,428.2832" style="stroke:#181818;stroke-width:1.0;"/><line style="stroke:#181818;stroke-width:1.0;" x1="33.5" x2="499.5" y1="428.2832" y2="428.2832"/><polygon fill="#181818" points="488.5,453.5938,498.5,457.5938,488.5,461.5938,492.5,457.5938" style="stroke:#181818;stroke-width:1.0;"/><line style="stroke:#181818;stroke-width:1.0;" x1="28.5" x2="494.5" y1="457.5938" y2="457.5938"/><text fill="#000000" font-family="sans-serif" font-size="13" lengthAdjust="spacing" textLength="34" x="35.5" y="452.8516">play()</text><polygon fill="#181818" points="635.5,482.9043,645.5,486.9043,635.5,490.9043,639.5,486.9043" style="stroke:#181818;stroke-width:1.0;"/><line style="stroke:#181818;stroke-width:1.0;" x1="510.5" x2="641.5" y1="486.9043" y2="486.9043"/><text fill="#000000" font-family="sans-serif" font-size="13" lengthAdjust="spacing" textLength="32" x="517.5" y="482.1621">this()</text><polygon fill="#181818" points="521.5,496.9043,511.5,500.9043,521.5,504.9043,517.5,500.9043" style="stroke:#181818;stroke-width:1.0;"/><line style="stroke:#181818;stroke-width:1.0;" x1="515.5" x2="651.5" y1="500.9043" y2="500.9043"/><polygon fill="#181818" points="293.5,526.2148,283.5,530.2148,293.5,534.2148,289.5,530.2148" style="stroke:#181818;stroke-width:1.0;"/><line style="stroke:#181818;stroke-width:1.0;" x1="287.5" x2="499.5" y1="530.2148" y2="530.2148"/><text fill="#000000" font-family="sans-serif" font-size="13" lengthAdjust="spacing" textLength="60" x="299.5" y="525.4727">getMaze()</text><polygon fill="#181818" points="488.5,540.2148,498.5,544.2148,488.5,548.2148,492.5,544.2148" style="stroke:#181818;stroke-width:1.0;"/><line style="stroke:#181818;stroke-width:1.0;" x1="277.5" x2="494.5" y1="544.2148" y2="544.2148"/><polygon fill="#181818" points="714,569.5254,724,573.5254,714,577.5254,718,573.5254" style="stroke:#181818;stroke-width:1.0;"/><line style="stroke:#181818;stroke-width:1.0;" x1="510.5" x2="720" y1="573.5254" y2="573.5254"/><text fill="#000000" font-family="sans-serif" font-size="13" lengthAdjust="spacing" textLength="178" x="517.5" y="568.7832">this(mazeBinary,  west, east)</text><polygon fill="#181818" points="521.5,583.5254,511.5,587.5254,521.5,591.5254,517.5,587.5254" style="stroke:#181818;stroke-width:1.0;"/><line style="stroke:#181818;stroke-width:1.0;" x1="515.5" x2="725" y1="587.5254" y2="587.5254"/><polygon fill="#181818" points="714,612.8359,724,616.8359,714,620.8359,718,616.8359" style="stroke:#181818;stroke-width:1.0;"/><line style="stroke:#181818;stroke-width:1.0;" x1="510.5" x2="720" y1="616.8359" y2="616.8359"/><text fill="#000000" font-family="sans-serif" font-size="13" lengthAdjust="spacing" textLength="41" x="517.5" y="612.0938">solve()</text><polygon fill="#181818" points="901,642.1465,911,646.1465,901,650.1465,905,646.1465" style="stroke:#181818;stroke-width:1.0;"/><line style="stroke:#181818;stroke-width:1.0;" x1="736" x2="907" y1="646.1465" y2="646.1465"/><text fill="#000000" font-family="sans-serif" font-size="13" lengthAdjust="spacing" textLength="158" x="743" y="641.4043">this(coords[0], coords[1])</text><polygon fill="#181818" points="747,656.1465,737,660.1465,747,664.1465,743,660.1465" style="stroke:#181818;stroke-width:1.0;"/><line style="stroke:#181818;stroke-width:1.0;" x1="741" x2="917" y1="660.1465" y2="660.1465"/><polygon fill="#181818" points="989,685.457,999,689.457,989,693.457,993,689.457" style="stroke:#181818;stroke-width:1.0;"/><line style="stroke:#181818;stroke-width:1.0;" x1="736" x2="995" y1="689.457" y2="689.457"/><text fill="#000000" font-family="sans-serif" font-size="13" lengthAdjust="spacing" textLength="99" x="743" y="684.7148">this(maze_map)</text><polygon fill="#181818" points="747,699.457,737,703.457,747,707.457,743,703.457" style="stroke:#181818;stroke-width:1.0;"/><line style="stroke:#181818;stroke-width:1.0;" x1="741" x2="1005" y1="703.457" y2="703.457"/><line style="stroke:#181818;stroke-width:1.0;" x1="736" x2="778" y1="732.7676" y2="732.7676"/><line style="stroke:#181818;stroke-width:1.0;" x1="778" x2="778" y1="732.7676" y2="745.7676"/><line style="stroke:#181818;stroke-width:1.0;" x1="737" x2="778" y1="745.7676" y2="745.7676"/><polygon fill="#181818" points="747,741.7676,737,745.7676,747,749.7676,743,745.7676" style="stroke:#181818;stroke-width:1.0;"/><text fill="#000000" font-family="sans-serif" font-size="13" lengthAdjust="spacing" textLength="109" x="743" y="728.0254">pathFinding(east)</text><polygon fill="#181818" points="521.5,755.7676,511.5,759.7676,521.5,763.7676,517.5,759.7676" style="stroke:#181818;stroke-width:1.0;"/><line style="stroke:#181818;stroke-width:1.0;" x1="515.5" x2="725" y1="759.7676" y2="759.7676"/><polygon fill="#181818" points="714,785.0781,724,789.0781,714,793.0781,718,789.0781" style="stroke:#181818;stroke-width:1.0;"/><line style="stroke:#181818;stroke-width:1.0;" x1="510.5" x2="720" y1="789.0781" y2="789.0781"/><text fill="#000000" font-family="sans-serif" font-size="13" lengthAdjust="spacing" textLength="55" x="517.5" y="784.3359">getPath()</text><polygon fill="#181818" points="521.5,799.0781,511.5,803.0781,521.5,807.0781,517.5,803.0781" style="stroke:#181818;stroke-width:1.0;"/><line style="stroke:#181818;stroke-width:1.0;" x1="515.5" x2="730" y1="803.0781" y2="803.0781"/><polygon fill="#181818" points="635.5,828.3887,645.5,832.3887,635.5,836.3887,639.5,832.3887" style="stroke:#181818;stroke-width:1.0;"/><line style="stroke:#181818;stroke-width:1.0;" x1="510.5" x2="641.5" y1="832.3887" y2="832.3887"/><text fill="#000000" font-family="sans-serif" font-size="13" lengthAdjust="spacing" textLength="118" x="517.5" y="827.6465">factorizePath(path)</text><polygon fill="#181818" points="521.5,842.3887,511.5,846.3887,521.5,850.3887,517.5,846.3887" style="stroke:#181818;stroke-width:1.0;"/><line style="stroke:#181818;stroke-width:1.0;" x1="515.5" x2="651.5" y1="846.3887" y2="846.3887"/><polygon fill="#181818" points="39.5,856.3887,29.5,860.3887,39.5,864.3887,35.5,860.3887" style="stroke:#181818;stroke-width:1.0;"/><line style="stroke:#181818;stroke-width:1.0;" x1="33.5" x2="499.5" y1="860.3887" y2="860.3887"/><!--SRC=[dLJ1ReCm3BtdAtAa4fEsQm-JrgexhLArIhjCLUM1IoFHX2Lfj_Rhbq00Gvb6Tue9py_FpuO2j1M9A41QlWGXMK4kvahkHDQvMi855zzMGs8PymdyxZ7WfjpkXOb0PsR2t7jn0eirHtLui4-QNgKcvNdKMENpFnF063Jc3NAHhi3keydu4azvfhIm-yE8f0pj30pcGk80EiL-dmq1CIeOinCv5augCOUwIU9hEHqsfsbj_KnaDbTAfq8wBkFatKInaEau0jBauFJzvUjHIjIXKT_ark3d4MM2CJ-uzp4tNd7CKQOn1pU0c7y4Nzke6KpFeegTjU5mTxM88eTpQAQ5hxHAtCAeMYGfqRnYJTIZf1wqw2j1NOFzSpHss8EbUdRJOckLdnh3lSCpDqHzZZd_GkDz1cD9xGhEggDVSPZP-DFfRtDUL09MA1cg9dvrpFlz9kOXVDYGaZMQrG4XfqqskAuuj-4MIN_R0nGzCqi8Qw9V-5jaMw3kqM_gioW_XAXox1Q7t8p3hsSuYuW8_l-waZk7TAj_mPAmzvVuxtuEV2y_]--></g></svg>